<svg xmlns="http://www.w3.org/2000/svg" width="367.715" height="512.002" viewBox="0 0 367.715 512.002">
  <path id="clover-white" d="M422.265,215.907c-9.2-9.209-22.106-16.966-38.361-23.054a7.5,7.5,0,0,0-5.261,14.047c14.232,5.331,25.338,11.928,33.011,19.609,16.283,16.3,17.609,42.266,2.957,57.885a39.9,39.9,0,0,1-21.694,11.981,30.983,30.983,0,0,0-24.4,24.395,39.9,39.9,0,0,1-11.981,21.7c-15.619,14.651-41.586,13.326-57.884-2.957-27.59-27.561-33.886-90.12-35.111-126.877.118-3.762.181-7.247.21-10.417l88.113,88.113a7.5,7.5,0,0,0,10.606-10.606l-88.113-88.113c35.865-.326,113.364-5.225,147.9-39.8a59.745,59.745,0,0,0,17.5-38.815A53.279,53.279,0,0,0,425.55,73.057a54.8,54.8,0,0,0-29.807-16.449,15.863,15.863,0,0,1-12.491-12.492A54.8,54.8,0,0,0,366.8,14.31,53.28,53.28,0,0,0,326.867.1a59.751,59.751,0,0,0-38.815,17.5C271.454,34.175,261.7,60.657,256,87.68c-5.7-27.023-15.453-53.505-32.051-70.086A59.742,59.742,0,0,0,185.136.1,53.282,53.282,0,0,0,145.2,14.31a54.8,54.8,0,0,0-16.45,29.807,15.864,15.864,0,0,1-12.491,12.491,54.8,54.8,0,0,0-29.807,16.45A53.275,53.275,0,0,0,72.24,112.991a59.752,59.752,0,0,0,17.5,38.815c9.191,9.2,22.082,16.95,38.313,23.037a7.5,7.5,0,0,0,5.265-14.046c-14.21-5.328-25.3-11.92-32.967-19.592-16.283-16.3-17.609-42.266-2.957-57.885a39.893,39.893,0,0,1,21.694-11.981,30.984,30.984,0,0,0,24.4-24.4,39.9,39.9,0,0,1,11.981-21.695c15.618-14.653,41.585-13.327,57.884,2.957,27.59,27.561,33.886,90.12,35.111,126.877-.118,3.762-.181,7.246-.21,10.416L160.135,77.386a7.5,7.5,0,1,0-10.606,10.606l88.113,88.113c-35.863.326-113.363,5.223-147.906,39.8a59.745,59.745,0,0,0-17.5,38.815,53.279,53.279,0,0,0,14.214,39.934,54.8,54.8,0,0,0,29.807,16.449A15.863,15.863,0,0,1,128.75,323.6,54.806,54.806,0,0,0,145.2,353.4a53.034,53.034,0,0,0,36.637,14.309q1.64,0,3.3-.094a59.748,59.748,0,0,0,38.815-17.5c9.339-9.329,16.507-21.8,22.01-35.73-2.628,41.154-7.7,85.579-17.041,126.148-9.673,42.027-19.467,60.16-19.556,60.321a7.5,7.5,0,1,0,13.112,7.284c1.462-2.632,31.622-58.687,39.271-205.917,5.9,18.777,14.317,35.918,26.3,47.893a59.749,59.749,0,0,0,38.815,17.5q1.656.094,3.3.094A53.035,53.035,0,0,0,366.8,353.4a54.8,54.8,0,0,0,16.45-29.807,15.864,15.864,0,0,1,12.491-12.491,54.8,54.8,0,0,0,29.807-16.449,53.275,53.275,0,0,0,14.214-39.934,59.728,59.728,0,0,0-17.494-38.815Zm-156.25-95.584c5-43.924,16.282-75.778,32.639-92.118,16.3-16.283,42.265-17.609,57.884-2.957a39.893,39.893,0,0,1,11.981,21.694,30.984,30.984,0,0,0,24.4,24.4,39.89,39.89,0,0,1,21.694,11.981c14.652,15.619,13.326,41.586-2.957,57.885-30.52,30.551-103.951,34.991-137.742,35.349l88.562-88.562a7.5,7.5,0,0,0-10.606-10.606L263.753,165.5c-.03-3.258-.1-6.851-.22-10.733.336-10,1.053-21.885,2.482-34.442ZM213.349,339.507c-16.3,16.283-42.266,17.608-57.884,2.957a39.892,39.892,0,0,1-11.981-21.7,30.983,30.983,0,0,0-24.4-24.395,39.893,39.893,0,0,1-21.694-11.981c-14.652-15.619-13.326-41.586,2.957-57.885,30.52-30.552,103.951-34.992,137.742-35.35L149.531,279.72a7.5,7.5,0,1,0,10.606,10.606l88.113-88.113c.03,3.258.1,6.851.22,10.733-.337,10-1.054,21.886-2.482,34.442-4.995,43.925-16.282,75.779-32.639,92.119Z" transform="translate(-72.144 0)" fill="#fff"/>
</svg>
