<svg xmlns="http://www.w3.org/2000/svg" width="58" height="46" viewBox="0 0 58 46">
  <g id="video-player-white" transform="translate(0 -6)">
    <path id="Tracé_1" data-name="Tracé 1" d="M36.537,28.156l-11-7A1,1,0,0,0,24,22V36a1,1,0,0,0,1.537.844l11-7a1,1,0,0,0,0-1.688ZM26,34.179V23.821L34.137,29Z" fill="#fff"/>
    <path id="Tracé_2" data-name="Tracé 2" d="M57,6H1A1,1,0,0,0,0,7V51a1,1,0,0,0,1,1H57a1,1,0,0,0,1-1V7A1,1,0,0,0,57,6ZM10,28H2V19h8ZM2,30h8v9H2ZM12,40V8H46V50H12ZM56,28H48V19h8Zm-8,2h8v9H48ZM56,8v9H48V8ZM2,8h8v9H2ZM2,50V41h8v9Zm54,0H48V41h8Z" fill="#fff"/>
  </g>
</svg>
